<svg width="68.000000pt" height="41.000000pt" viewBox="0 0 68.000000 41.000000" xmlns="http://www.w3.org/2000/svg">
  <g transform="translate(0.000000,41.000000) scale(0.100000,-0.100000)" fill="#fefefe" stroke="none">
    <path d="M0 205 c0 -205 0 -205 148 -205 174 0 165 -6 184 129 14 112 20 113
48 9 30 -112 35 -120 73 -116 34 3 39 11 75 138 18 65 18 65 31 -28 15 -118
23 -132 78 -132 43 0 43 0 43 205 0 205 0 205 -340 205 -340 0 -340 0 -340
-205z m610 170 c48 -25 60 -61 60 -177 0 -155 -14 -150 -40 14 -26 160 -29
168 -75 168 -42 0 -48 -9 -76 -107 -13 -46 -26 -83 -29 -83 -3 0 -16 37 -29
83 -28 100 -34 107 -81 107 -51 0 -54 -5 -80 -167 -15 -96 -27 -143 -35 -143
-7 0 -16 -7 -19 -15 -5 -13 -21 -15 -88 -13 -83 3 -83 3 -86 153 -3 175 -3
175 90 175 45 0 63 -5 78 -20 22 -22 40 -26 40 -10 0 47 293 75 370 35z" />
    <path d="M143 313 c-76 -6 -85 -83 -10 -83 23 0 52 -3 65 -6 21 -6 22 -3 22
45 0 35 -4 50 -12 49 -7 -1 -37 -3 -65 -5z" />
    <path d="M180 180 c-8 -5 -32 -10 -52 -10 -38 0 -38 0 -38 -40 0 -40 0 -40 65
-40 65 0 65 0 65 50 0 51 -9 60 -40 40z" />
  </g>
  <g transform="translate(0.000000,41.000000) scale(0.100000,-0.100000)" fill="#d67e34" stroke="none">
    <path d="M263 380 c-18 -11 -33 -24 -33 -30 0 -5 -9 -1 -20 10 -16 16 -33 20
-88 20 -105 0 -103 3 -100 -185 3 -160 3 -160 96 -163 74 -2 93 0 98 12 3 8
11 13 18 10 8 -3 19 39 35 143 26 162 30 173 71 173 37 0 43 -10 72 -110 32
-108 44 -108 76 0 28 97 36 110 67 110 35 0 41 -15 66 -172 23 -148 29 -165
49 -129 38 73 5 288 -50 316 -48 25 -314 21 -357 -5z m-53 -107 c0 -38 0 -38
-55 -35 -83 6 -86 59 -2 65 28 2 53 4 55 5 1 1 2 -15 2 -35z m0 -133 c0 -40 0
-40 -55 -40 -54 0 -55 0 -55 30 0 28 3 30 38 30 20 0 44 5 52 10 8 5 16 10 18
10 1 0 2 -18 2 -40z" />
    <path d="M520 179 c-58 -203 -86 -206 -136 -11 -26 103 -40 90 -65 -63 -6 -33
-17 -65 -26 -72 -33 -26 -1 -33 152 -33 153 0 186 7 151 33 -10 8 -19 43 -27
107 -15 122 -23 129 -49 39z" />
  </g>
  <g transform="translate(0.000000,41.000000) scale(0.100000,-0.100000)" fill="#df9d66" stroke="none">
    <path d="M22 208 c-2 -147 1 -178 20 -178 7 0 6 5 0 13 -7 8 -13 74 -15 163
-3 149 -3 149 -5 2z" />
  </g>
  <g transform="translate(0.000000,41.000000) scale(0.100000,-0.100000)" fill="#f8eee5" stroke="none">
    <path d="M38 369 c-10 -5 -18 -15 -18 -20 0 -6 7 -3 16 6 13 13 32 16 90 13
39 -2 70 0 67 5 -6 11 -135 8 -155 -4z" />
    <path d="M138 173 c-27 -2 -48 -7 -48 -11 0 -10 83 -2 95 9 5 5 7 8 5 7 -3 -1
-26 -3 -52 -5z" />
  </g>
  <g transform="translate(0.000000,41.000000) scale(0.100000,-0.100000)" fill="#f4decb" stroke="none">
    <path d="M303 373 c-7 -2 -13 -10 -13 -16 0 -8 4 -7 12 1 17 17 58 15 80 -5
22 -20 24 -11 2 11 -15 15 -55 20 -81 9z" />
    <path d="M523 373 c-7 -2 -13 -10 -13 -16 0 -8 4 -7 12 1 7 7 21 12 33 12 12
0 26 -5 33 -12 8 -8 12 -8 12 -1 0 19 -46 29 -77 16z" />
  </g>
  <g transform="translate(0.000000,41.000000) scale(0.100000,-0.100000)" fill="#e9bd98" stroke="none">
    <path d="M94 296 c-16 -42 -1 -61 49 -62 47 -1 47 -1 2 3 -71 6 -69 60 3 66
47 3 47 3 -1 5 -33 1 -49 -2 -53 -12z" />
  </g>
  <g transform="translate(0.000000,41.000000) scale(0.100000,-0.100000)" fill="#ecc6a5" stroke="none" />
  <g transform="translate(0.000000,41.000000) scale(0.100000,-0.100000)" fill="#e7b58c" stroke="none" />
  <g transform="translate(0.000000,41.000000) scale(0.100000,-0.100000)" fill="#fbf6f1" stroke="none" />
  <g transform="translate(0.000000,41.000000) scale(0.100000,-0.100000)" fill="#da8d4c" stroke="none" />
  <g transform="translate(0.000000,41.000000) scale(0.100000,-0.100000)" fill="#d88540" stroke="none" />
  <g transform="translate(0.000000,41.000000) scale(0.100000,-0.100000)" fill="#e4ae80" stroke="none" />
  <g transform="translate(0.000000,41.000000) scale(0.100000,-0.100000)" fill="#e09e67" stroke="none" />
  <g transform="translate(0.000000,41.000000) scale(0.100000,-0.100000)" fill="#efceb2" stroke="none" />
  <g transform="translate(0.000000,41.000000) scale(0.100000,-0.100000)" fill="#e2a573" stroke="none" />
  <g transform="translate(0.000000,41.000000) scale(0.100000,-0.100000)" fill="#f1d6be" stroke="none" />
  <g transform="translate(0.000000,41.000000) scale(0.100000,-0.100000)" fill="#dd9559" stroke="none" />
  <g transform="translate(0.000000,41.000000) scale(0.100000,-0.100000)" fill="#f7e7d9" stroke="none" />
  <g transform="translate(0.000000,41.000000) scale(0.100000,-0.100000)" fill="#e6b48b" stroke="none" />
  <g transform="translate(0.000000,41.000000) scale(0.100000,-0.100000)" fill="#f6e5d8" stroke="none" />
  <g transform="translate(0.000000,41.000000) scale(0.100000,-0.100000)" fill="#d7853f" stroke="none" />
  <g transform="translate(0.000000,41.000000) scale(0.100000,-0.100000)" fill="#f0ceb3" stroke="none" />
  <g transform="translate(0.000000,41.000000) scale(0.100000,-0.100000)" fill="#d78540" stroke="none" />
  <g transform="translate(0.000000,41.000000) scale(0.100000,-0.100000)" fill="#f5e6d7" stroke="none" />
  <g transform="translate(0.000000,41.000000) scale(0.100000,-0.100000)" fill="#003300" stroke="none" />
  <g transform="translate(0.000000,41.000000) scale(0.100000,-0.100000)" fill="#0000ff" stroke="none" />
  <g transform="translate(0.000000,41.000000) scale(0.100000,-0.100000)" fill="#0000cc" stroke="none" />
  <g transform="translate(0.000000,41.000000) scale(0.100000,-0.100000)" fill="#000099" stroke="none" />
  <g transform="translate(0.000000,41.000000) scale(0.100000,-0.100000)" fill="#000066" stroke="none" />
  <g transform="translate(0.000000,41.000000) scale(0.100000,-0.100000)" fill="#000033" stroke="none" />
  <g transform="translate(0.000000,41.000000) scale(0.100000,-0.100000)" fill="#000000" stroke="none" />
  <g transform="translate(0.000000,41.000000) scale(0.100000,-0.100000)" fill="#000000" stroke="none" />
  <g transform="translate(0.000000,41.000000) scale(0.100000,-0.100000)" fill="#000000" stroke="none" />
  <g transform="translate(0.000000,41.000000) scale(0.100000,-0.100000)" fill="#000000" stroke="none" />
  <g transform="translate(0.000000,41.000000) scale(0.100000,-0.100000)" fill="#000000" stroke="none" />
  <g transform="translate(0.000000,41.000000) scale(0.100000,-0.100000)" fill="#000000" stroke="none" />
  <g transform="translate(0.000000,41.000000) scale(0.100000,-0.100000)" fill="#000000" stroke="none" />
  <g transform="translate(0.000000,41.000000) scale(0.100000,-0.100000)" fill="#000000" stroke="none" />
  <g transform="translate(0.000000,41.000000) scale(0.100000,-0.100000)" fill="#000000" stroke="none" />
  <g transform="translate(0.000000,41.000000) scale(0.100000,-0.100000)" fill="#000000" stroke="none" />
  <g transform="translate(0.000000,41.000000) scale(0.100000,-0.100000)" fill="#000000" stroke="none" />
  <g transform="translate(0.000000,41.000000) scale(0.100000,-0.100000)" fill="#000000" stroke="none" />
  <g transform="translate(0.000000,41.000000) scale(0.100000,-0.100000)" fill="#000000" stroke="none" />
  <g transform="translate(0.000000,41.000000) scale(0.100000,-0.100000)" fill="#000000" stroke="none" />
  <g transform="translate(0.000000,41.000000) scale(0.100000,-0.100000)" fill="#000000" stroke="none" />
  <g transform="translate(0.000000,41.000000) scale(0.100000,-0.100000)" fill="#000000" stroke="none" />
  <g transform="translate(0.000000,41.000000) scale(0.100000,-0.100000)" fill="#000000" stroke="none" />
  <g transform="translate(0.000000,41.000000) scale(0.100000,-0.100000)" fill="#003333" stroke="none" />
</svg>